<?xml version="1.0" standalone="no"?>
<!DOCTYPE svg PUBLIC "-//W3C//DTD SVG 20010904//EN"
 "http://www.w3.org/TR/2001/REC-SVG-20010904/DTD/svg10.dtd">
<svg version="1.0" xmlns="http://www.w3.org/2000/svg"
 width="261.000000pt" height="261.000000pt" viewBox="0 0 261.000000 261.000000"
 preserveAspectRatio="xMidYMid meet">
<metadata>
Created by potrace 1.14, written by Peter Selinger 2001-2017
</metadata>
<g transform="translate(0.000000,261.000000) scale(0.100000,-0.100000)"
fill="#000000" stroke="none">
<path d="M1170 2267 c-3 -3 -24 -7 -47 -11 -52 -7 -180 -49 -236 -78 -295
-150 -497 -455 -509 -766 l-2 -70 -41 -12 c-69 -21 -109 -55 -147 -125 -20
-37 -22 -54 -22 -251 0 -193 2 -215 21 -255 12 -24 34 -57 50 -72 62 -58 199
-83 230 -41 7 10 13 45 13 83 0 36 1 226 1 421 0 386 5 428 57 564 53 134 172
287 287 366 69 47 203 107 281 126 385 91 797 -127 937 -496 49 -131 49 -131
54 -605 4 -377 7 -452 19 -465 23 -24 123 -18 175 11 54 30 105 96 116 151 5
24 9 129 8 233 -2 170 -4 194 -22 230 -36 70 -99 118 -167 129 -15 2 -21 11
-22 32 -13 262 -99 463 -271 637 -171 172 -364 254 -618 264 -77 3 -142 3
-145 0z"/>
<path d="M1274 1450 c-12 -5 -25 -14 -30 -21 -4 -7 -7 -241 -7 -521 0 -434 2
-511 14 -524 24 -23 55 -24 75 -3 16 18 18 55 18 520 1 275 -2 509 -6 519 -10
26 -39 39 -64 30z"/>
<path d="M872 1234 c-22 -15 -22 -16 -22 -324 0 -308 0 -309 22 -324 29 -21
52 -20 69 1 11 13 14 78 15 320 0 281 -1 305 -18 323 -23 24 -36 25 -66 4z"/>
<path d="M1642 1180 c-17 -18 -18 -43 -18 -301 1 -266 2 -281 20 -295 27 -19
50 -18 69 4 15 16 17 52 17 293 0 204 -3 280 -12 292 -19 26 -55 29 -76 7z"/>
<path d="M1058 1153 c-13 -15 -15 -56 -14 -246 1 -226 1 -229 24 -247 22 -18
43 -18 69 2 8 7 12 76 13 243 0 201 -2 235 -15 249 -21 21 -58 20 -77 -1z"/>
<path d="M1446 1134 c-14 -13 -16 -48 -16 -224 0 -199 1 -210 21 -228 23 -23
53 -19 73 9 19 28 17 419 -3 443 -17 20 -55 21 -75 0z"/>
<path d="M676 1104 c-18 -17 -18 -14 -18 -210 0 -78 3 -150 6 -162 13 -41 75
-40 92 1 7 17 11 273 5 344 -2 18 -31 43 -51 43 -10 0 -26 -7 -34 -16z"/>
<path d="M1836 1105 c-18 -14 -20 -29 -21 -182 0 -93 3 -177 9 -188 18 -40 55
-46 83 -16 16 17 18 38 16 183 -2 200 0 184 -19 202 -19 20 -43 20 -68 1z"/>
</g>
</svg>
